<?xml version="1.0" encoding="UTF-8"?>
<svg xmlns="http://www.w3.org/2000/svg" width="120" height="90" viewBox="0 0 260 158">
  <g id="Group_4440" data-name="Group 4440" transform="translate(-196 -180.5)">
    <line id="Line_48" data-name="Line 48" y2="158" transform="translate(331.5 180.5)" fill="none" stroke="#e54b35" stroke-width="2.5"/>
    <text id="MY_BOX" data-name="MY 
BOX" transform="translate(347 250)" fill="#e54b35" font-size="50" font-family="AXIS-ExtraBold, AXIS" font-weight="800"><tspan x="0" y="0">MY </tspan><tspan x="0" y="60">BOX</tspan></text>
    <path id="full-tea-leaf" d="M57.927,101.953a3.014,3.014,0,0,0,.288.1,2.881,2.881,0,0,0,.774.106h.087A25.859,25.859,0,0,0,83.4,68.074,2.9,2.9,0,0,0,80.651,66.1h-.016a25.935,25.935,0,0,0-13.489,3.885A33.1,33.1,0,0,0,47.269,48.95a2.9,2.9,0,0,0-3.282.88,33.3,33.3,0,0,0,13.94,52.123ZM78.483,72.022A20.056,20.056,0,0,1,61.158,96.228,20.055,20.055,0,0,1,78.483,72.022ZM47.19,55.211A27.306,27.306,0,0,1,61.7,71.992c.049.16.208.622.386,1.134.068.2.157.452.24.693a25.79,25.79,0,0,0-7.34,20.188,27.488,27.488,0,0,1-7.8-38.8Zm71.162-45.2H2.9A2.9,2.9,0,0,0,0,12.9V29.8a2.9,2.9,0,0,0,2.9,2.9H7.232v88.411a2.9,2.9,0,0,0,2.9,2.9H111.12a2.9,2.9,0,0,0,2.9-2.9V32.7h4.335a2.9,2.9,0,0,0,2.9-2.9V12.9A2.9,2.9,0,0,0,118.351,10.008ZM108.222,118.214h-95.2V32.7h95.2v85.514Zm7.232-91.308H5.794V15.8h109.66Z" transform="translate(196 191.992)" fill="#e54b35"/>
  </g>
</svg>
