<svg xmlns="http://www.w3.org/2000/svg" width="73" height="71" viewBox="0 0 73 71">
  <g id="Group_4445" data-name="Group 4445" transform="translate(-5341 415.5)">
    <g id="Tea_In_Box" data-name="Tea In Box" transform="translate(5341 -415.043)">
      <path id="Path_6469" data-name="Path 6469" d="M575.59,537.321v-.711h23.141v.711h-9.446v20.491h-4.234V537.321H575.59Z" transform="translate(-575.59 -536.61)" fill="#e54b35"/>
      <path id="Path_6470" data-name="Path 6470" d="M892,557.831V536.564l16.257.046v.711h-12.02v9.194h8.483v.7h-8.483v9.9h12.021v.715Z" transform="translate(-865.812 -536.61)" fill="#e54b35"/>
      <path id="Path_6471" data-name="Path 6471" d="M1112.76,557.877l7.788-21.216h4.516l7.773,21.216h-4.516l-2.872-7.788h-9.032l-.622,1.688-2.331,6.1Zm3.923-8.484h8.5l-4.264-11.548Z" transform="translate(-1068.3 -536.656)" fill="#e54b35"/>
      <path id="Path_6472" data-name="Path 6472" d="M984.51,851.028V829.84h4.233v21.188Z" transform="translate(-948.842 -805.57)" fill="#e54b35"/>
      <path id="Path_6473" data-name="Path 6473" d="M1094.65,852.416l.04-22.016h5.24l13.62,19.262V830.4h.889l-.04,21.32h-4.669l-14.153-20.076v20.772Z" transform="translate(-1049.903 -806.084)" fill="#e54b35"/>
      <path id="Path_6474" data-name="Path 6474" d="M564.68,1124.608v-1.673h10.956a15.842,15.842,0,0,1,3.213.3,9.864,9.864,0,0,1,2.628.918,4.646,4.646,0,0,1,1.813,1.655,4.469,4.469,0,0,1,.651,2.421,4.137,4.137,0,0,1-1.288,3.153,7.577,7.577,0,0,1-3.494,1.747,8,8,0,0,1,3.857,1.858,4.539,4.539,0,0,1,1.443,3.486,4.78,4.78,0,0,1-2.553,4.353,10.04,10.04,0,0,1-2.68.977,15.14,15.14,0,0,1-3.235.325h-11.3Zm4.234,8.217h4.945a9,9,0,0,0,1.517-.126,6.071,6.071,0,0,0,1.473-.46,4.786,4.786,0,0,0,1.288-.836,3.691,3.691,0,0,0,.887-1.318,4.747,4.747,0,0,0,.341-1.851,4.8,4.8,0,0,0-.341-1.858,3.672,3.672,0,0,0-.888-1.324,4.781,4.781,0,0,0-1.3-.837,6.229,6.229,0,0,0-1.481-.459,8.9,8.9,0,0,0-1.517-.126h-4.93Zm0,10.6h4.945a8.881,8.881,0,0,0,1.573-.141,7.263,7.263,0,0,0,1.606-.5,5.505,5.505,0,0,0,1.441-.895,4.008,4.008,0,0,0,1.014-1.421,5.25,5.25,0,0,0,0-3.983,4.055,4.055,0,0,0-1.007-1.421,5.42,5.42,0,0,0-1.429-.9,7.158,7.158,0,0,0-1.6-.5,8.834,8.834,0,0,0-1.573-.141h-4.974Z" transform="translate(-564.68 -1074.406)" fill="#e54b35"/>
      <path id="Path_6475" data-name="Path 6475" d="M842.345,1133.736a14.87,14.87,0,0,1,0-8.261,9.492,9.492,0,0,1,1.592-3.109,9.015,9.015,0,0,1,2.405-2.1,10.565,10.565,0,0,1,2.991-1.229,15.061,15.061,0,0,1,6.765,0,10.565,10.565,0,0,1,2.991,1.229,9.005,9.005,0,0,1,2.406,2.1,9.524,9.524,0,0,1,1.591,3.109,14.871,14.871,0,0,1,0,8.261,9.53,9.53,0,0,1-1.591,3.109,9.032,9.032,0,0,1-2.406,2.1,10.555,10.555,0,0,1-2.991,1.228,15.026,15.026,0,0,1-6.765,0,10.556,10.556,0,0,1-2.991-1.228,9.046,9.046,0,0,1-2.405-2.1A9.519,9.519,0,0,1,842.345,1133.736Zm4.375-8.047a21.723,21.723,0,0,0,0,7.832,10.971,10.971,0,0,0,.962,2.909,7.578,7.578,0,0,0,1.429,1.947,5.121,5.121,0,0,0,1.717,1.133,5.276,5.276,0,0,0,1.888.34,5.039,5.039,0,0,0,2.346-.57,6.2,6.2,0,0,0,2.021-1.746,8.939,8.939,0,0,0,1.458-3.213,18.528,18.528,0,0,0,.54-4.718,19.416,19.416,0,0,0-.362-3.917,11.494,11.494,0,0,0-.963-2.917,7.3,7.3,0,0,0-1.429-1.954,5.164,5.164,0,0,0-1.732-1.132,5.3,5.3,0,0,0-1.88-.341,5.17,5.17,0,0,0-1.888.348,5.261,5.261,0,0,0-1.717,1.132,7.411,7.411,0,0,0-1.429,1.947A11.23,11.23,0,0,0,846.72,1125.689Z" transform="translate(-818.827 -1070.476)" fill="#e54b35"/>
      <path id="Path_6476" data-name="Path 6476" d="M1112.76,1143.6l7.966-10.112-7.6-11.091v-.015h5.122l6.28,9.166,2.842-3.672,4.338-5.495,1.1.014-7.758,9.89,7.758,11.313h-5.152l-6.425-9.371-3.02,3.89-4.376,5.481Z" transform="translate(-1067.397 -1073.898)" fill="#e54b35"/>
    </g>
    <line id="Line_80" data-name="Line 80" y2="71" transform="translate(5413.5 -415.5)" fill="none" stroke="#e54b35" stroke-width="1"/>
  </g>
</svg>
